<svg xmlns="http://www.w3.org/2000/svg" viewBox="0 0 964 964"><g fill="currentColor" class="nc-icon-wrapper"><path fill="currentColor" d="M698.798 49.9217L914.096 49.9238L914.131 914.054C909.647 914.002 892.046 914.858 889.271 913.136C881.107 908.068 871.591 900.816 863.657 895.048L814.638 859.482L646.127 737.291L68.956 318.778C62.7558 314.151 56.388 309.598 50.1234 305.045C49.6197 294.279 49.9155 282.007 49.9196 271.1L49.9298 212.654L49.9865 49.9672L401.277 302.462L508.324 379.44C545.116 405.899 577.76 427.2 609.467 460.317C664.756 518.064 703.423 585.907 732.023 660.144C735.848 670.01 739.46 679.956 742.857 689.977C744.432 694.612 746.618 700.56 747.588 705.17C775.763 695.705 806.786 687.145 835.434 678.023C829.873 667.431 822.574 649.52 817.405 637.983L781.009 556.731L739.694 464.56C726.465 434.987 710.247 401.007 703.609 369.557C697.536 340.784 698.529 308.716 698.529 279.329L698.534 190.275L698.521 99.0295C698.52 84.3223 697.944 64.3265 698.798 49.9217Z"></path><path fill="currentColor" d="M50.0443 639.099C130.276 640.282 205.642 657.173 266.34 713.368C308.755 752.637 333.976 806.755 342.927 863.381C345.71 880.984 346.391 896.37 346.974 914.058L50.0549 914.028C49.5455 901.482 49.9187 886.194 49.9169 873.503L49.9118 798.657L49.9147 696.235C49.9167 677.355 49.6565 657.919 50.0443 639.099Z"></path></g></svg>