<svg xmlns="http://www.w3.org/2000/svg" width="75" height="36" viewBox="0 0 75 36"><g fill="none" class="nc-icon-wrapper"><path d="M33.2469 16.9699L73.9805 16.9699C74.5417 16.9699 75 17.433 75 18C75 18.5671 74.5417 19.0301 73.9805 19.0301L33.2469 19.0301C27.5676 19.0301 22.9438 23.7017 22.9438 29.4399L22.9438 34.9699C22.9438 35.537 22.4856 36 21.9243 36C21.3631 36 20.9048 35.537 20.9048 34.9699L20.9048 29.4399C20.9048 23.7017 16.2811 19.0301 10.6017 19.0301L1.0195 19.0301C0.458259 19.0301 -8.11592e-07 18.5671 -7.86805e-07 18C-7.62018e-07 17.4329 0.458259 16.9699 1.0195 16.9699L10.6017 16.9699C16.2811 16.9699 20.9048 12.2983 20.9048 6.56011L20.9048 1.03006C20.9048 0.463003 21.3631 -2.34454e-06 21.9243 -2.32001e-06C22.4856 -2.29548e-06 22.9438 0.463004 22.9438 1.03006L22.9438 6.56011C22.9438 12.2983 27.5676 16.9699 33.2469 16.9699Z" fill="#eee"></path></g></svg>